<?xml version="1.0" encoding="UTF-8"?>
<!DOCTYPE svg PUBLIC "-//W3C//DTD SVG 1.1//EN" "http://www.w3.org/Graphics/SVG/1.1/DTD/svg11.dtd">
<!-- Creator: CorelDRAW 2021 (64-Bit) -->
<svg xmlns="http://www.w3.org/2000/svg" xml:space="preserve" width="7.69564in" height="3.93267in" version="1.1" style="shape-rendering:geometricPrecision; text-rendering:geometricPrecision; image-rendering:optimizeQuality; fill-rule:evenodd; clip-rule:evenodd"
viewBox="0 0 7569.34 3868.13"
 xmlns:xlink="http://www.w3.org/1999/xlink"
 xmlns:xodm="http://www.corel.com/coreldraw/odm/2003">
 <defs>
  <style type="text/css">
   <![CDATA[
    .fil3 {fill:#FEFEFE;fill-rule:nonzero}
    .fil0 {fill:url(#id0)}
    .fil2 {fill:url(#id1)}
    .fil1 {fill:url(#id2)}
   ]]>
  </style>
  <linearGradient id="id0" gradientUnits="userSpaceOnUse" x1="3784.37" y1="4197.95" x2="3784.37" y2="722.19">
   <stop offset="0" style="stop-opacity:1; stop-color:#916129"/>
   <stop offset="0.431373" style="stop-opacity:1; stop-color:#E9D17A"/>
   <stop offset="0.709804" style="stop-opacity:1; stop-color:#EFDC85"/>
   <stop offset="1" style="stop-opacity:1; stop-color:#F5E791"/>
  </linearGradient>
  <linearGradient id="id1" gradientUnits="userSpaceOnUse" xlink:href="#id0" x1="4135.82" y1="3507.01" x2="4135.82" y2="-1676.31">
  </linearGradient>
  <linearGradient id="id2" gradientUnits="userSpaceOnUse" xlink:href="#id0" x1="3348.51" y1="4198.04" x2="3348.51" y2="-1408.98">
  </linearGradient>
 </defs>
 <g id="Layer_x0020_1">
  <metadata id="CorelCorpID_0Corel-Layer"/>
  <g id="_2862072468352">
   <path class="fil0" d="M806.62 3554.71l0.02 0 0 -0.03 318.97 -975.34 0.02 0 0 -0.03 89.87 -274.8 -10.12 -7.32 0 -0.03 -0.05 0 -1205.32 -872.21 561.25 1.1 0 0.02 6.96 0 932.24 1.82 460.95 -1427.86 460.76 1427.5 187.89 0 -259.56 266 -121.1 0 -238.81 -739.81 0 -0.02 -29.19 -90.42 -267.9 829.94 -872.04 -1.72 706.58 511.31 -226.06 691.31 1932.88 -1932.81 4334.48 0 -151.82 266 -4072.54 0 -2640.85 2640.85 102.49 -313.42zm1985.94 -989.68l381.02 1165.15 -459.1 -334.92 0 -0.05 -0.07 0 -740.26 -540.02 640.76 -640.74 3648.7 0 -153.55 266.06 -3384.97 0 -343.91 343.89 284.76 207.72 -83.92 -256.54 210.53 -210.53zm740.21 -230.35c-24.73,-0.56 -38.46,-1.17 -41.23,-1.84 -3.32,-0.85 -4.1,-3.06 -2.45,-6.63 0.87,-1.86 2.03,-3.37 3.48,-4.54l0.99 0 0 -0.7c1.29,-0.83 2.76,-1.41 4.41,-1.75 4.05,-0.8 14.54,-1.22 31.42,-1.22 14.03,0 23.11,0.12 27.4,0.36 4.17,0.24 6.94,0.66 8.35,1.53 1.12,0.68 1.65,1.53 1.6,2.58 0,1.04 -0.68,3 -1.96,5.89l38.59 0c1.11,-2.4 1.96,-4 2.28,-4.85 4.41,-9.32 5.32,-16.02 2.75,-20 -2.63,-3.93 -9.63,-6.63 -20.92,-7.91 -7.42,-0.8 -20.67,-1.29 -39.87,-1.29 -27.11,0 -45.33,0.56 -54.65,1.58 -9.39,0.99 -17.06,3.39 -23.01,7.13 -7.91,4.78 -14.61,13.01 -20.05,24.66 -4.97,10.36 -5.96,17.79 -3.13,22.26 1.58,2.64 4.71,4.68 9.25,5.77 4.54,1.23 11.54,1.89 21.04,2.15 4.78,0.12 15.21,0.42 31.16,1.1 15.58,0.61 25.84,0.85 30.75,0.85 6.31,0.12 10.24,0.68 11.84,1.72 1.53,1.04 1.65,3.13 0.17,6.21 -0.52,1.11 -1.08,2.1 -1.7,2.99l-0.5 0 0 0.7c-1.61,2.07 -3.6,3.44 -5.88,4.1 -2.28,0.61 -5.09,1.04 -8.53,1.17l-12.66 0.17 -0.54 0 -0.54 0 -0.56 0 -1.96 0 0 0.02 -14.17 0.1 -10.36 -0.1 0 -0.02 -0.38 0 -0.59 0 -0.57 0c-8.83,-0.1 -14.33,-0.16 -16.42,-0.3 -2.96,-0.26 -5.17,-0.8 -6.63,-1.72 -1.91,-1.53 -1.67,-4.85 0.85,-9.95l-38.52 0 -2.33 4.85c-3.57,7.42 -5.17,12.94 -5.05,16.5 0.12,3.69 2.16,6.63 5.95,8.84 3.81,2.09 10.14,3.49 19.21,4.29 8.96,0.8 23.25,1.22 42.88,1.22 23.49,0 39.56,-0.29 48.52,-0.85 8.28,-0.68 15.02,-1.77 20.31,-3.49 5.22,-1.72 9.87,-4.37 14.05,-7.79 5.46,-4.73 10.61,-11.97 15.2,-21.65 3.44,-7.42 5.16,-13.13 5.04,-17.13 -0.07,-3.98 -2.09,-7.04 -5.77,-9.32 -3.3,-1.9 -8.35,-3.25 -15.09,-3.86 -6.87,-0.73 -20.61,-1.36 -41.45,-1.84zm2048.68 -38.78l-48.59 103.19 145.27 0 11.6 -24.78 -106 0 7.84 -16.69 99.93 0 10.68 -22.62 -99.99 0 6.99 -14.85 105.26 0 11.48 -24.24 -144.47 0zm-226.67 0l-48.59 103.19 39.75 0 12.28 -26.19 56.13 0c8.16,0 13.55,0.12 15.95,0.49 2.45,0.36 4.1,1.17 5.02,2.33 0.85,1.29 0.92,3.2 0.31,5.58 -0.56,2.45 -2.21,6.58 -4.97,12.28l-2.58 5.51 39.13 0 4.56 -9.56c4.16,-8.95 6.68,-14.73 7.41,-17.55 0.75,-2.82 0.5,-5.15 -0.66,-7.11 -2.03,-3.32 -7.13,-5.22 -15.21,-5.7 7.42,-0.92 13.37,-2.45 17.96,-4.73 4.17,-2.14 7.79,-4.9 10.63,-8.47 2.75,-3.49 6,-9.13 9.56,-16.55 4.17,-8.95 6.31,-15.53 6.43,-19.63 0.12,-4.17 -1.77,-7.43 -5.63,-9.83 -3.13,-2.02 -6.94,-3.18 -11.16,-3.49 -4.3,-0.42 -17.67,-0.49 -40.19,-0.56l-96.13 0zm27.54 25.84l55.89 0c9.08,0 14.66,0.12 16.5,0.17 1.84,0.12 3.43,0.43 4.54,0.99 1.65,0.68 2.39,1.89 2.39,3.62 0,1.6 -0.73,4.17 -2.33,7.48 -1.58,3.44 -3.18,6.02 -4.59,7.74 -1.48,1.65 -3.37,2.89 -5.46,3.74 -1.65,0.68 -3.44,1.1 -5.34,1.22 -1.9,0.14 -7.86,0.26 -17.55,0.38l-56.01 0 11.96 -25.34zm-235.81 -25.84l-48.52 103.19 145.15 0 11.65 -24.78 -106.07 0 7.86 -16.69 100.05 0 10.61 -22.62 -99.99 0 6.92 -14.85 105.39 0 11.36 -24.24 -144.42 0zm-242.13 0l-48.59 103.19 41.72 0 17.55 -37.3 89.82 0 -17.5 37.3 41.72 0 48.59 -103.19 -41.77 0 -17.37 37 -89.87 0 17.43 -37 -41.72 0zm-267.78 26.08l32.34 77.1 69.19 0 48.52 -103.19 -40.41 0 -35.29 77 -4.1 0 -32.08 -77 -69.75 0 -48.53 103.19 40.43 0 35.46 -77.1 4.22 0zm-271.01 59.63l86.3 0 2.95 17.48 45.14 0 -19.68 -103.19 -61.78 0 -117.78 103.19 45.45 0 19.39 -17.48zm76.26 -61.78l6.8 39.14 -58.34 0 43.63 -39.14 7.92 0zm-349.49 73.63c4.05,2.82 10.49,4.71 19.39,5.7 8.83,0.97 24.42,1.46 46.79,1.46 17.74,0 30.99,-0.17 39.87,-0.54 8.71,-0.43 16.76,-1.17 23.93,-2.16 16.75,-2.45 28.66,-9.81 35.7,-21.65 4.42,-7.35 10.07,-18.34 17.01,-32.88 0.05,-0.19 0.42,-1.17 1.1,-2.82l-90.79 0 -9.75 20.61 52.32 0c-0.73,1.41 -1.17,2.4 -1.41,2.88 -1.41,2.94 -2.76,5.15 -4.35,6.63 -1.48,1.53 -3.32,2.58 -5.58,3.18 -2.64,0.8 -5.97,1.24 -10,1.41 -3.88,0.19 -14.97,0.31 -33.07,0.44 -18.35,-0.17 -29.15,-0.44 -32.52,-0.73 -3.37,-0.19 -5.75,-1.11 -7.23,-2.45 -1.6,-1.41 -1.84,-3.81 -1.04,-7.25 0.87,-3.42 3.32,-9.49 7.42,-18.15 1.22,-2.61 2.38,-4.96 3.46,-7.06l0.22 0 0 -0.45c2.02,-3.88 3.76,-6.83 5.22,-8.87 2.26,-3.18 4.78,-5.46 7.6,-6.87 2.82,-1.41 7.23,-2.33 13.44,-2.76 6.07,-0.48 16,-0.78 29.75,-0.78 12.69,0 22.26,0.12 28.88,0.49 2.8,0.12 5.17,0.31 7.11,0.59l0 0.26 1.65 0c1.93,0.36 3.29,0.85 4.05,1.41 0.87,0.68 1.24,1.53 1.11,2.52 -0.07,1.04 -0.68,3.01 -2.02,5.89l39.68 0c3.37,-7.18 5.46,-12.71 6.31,-16.81 1.72,-8.22 -1.7,-13.56 -10.61,-15.95 -5.46,-1.53 -12.82,-2.7 -22.09,-3.25 -9.27,-0.68 -22.08,-0.99 -38.51,-0.99 -27.67,0 -48.66,0.92 -62.88,2.76 -13.01,1.72 -23.25,6.51 -30.8,14.54 -3.62,3.74 -6.94,8.04 -9.82,12.82 -2.88,4.8 -6.56,11.91 -10.92,21.3 -6.56,13.86 -10.49,23.13 -12.02,27.84 -1.53,5.05 -2.16,9.08 -1.53,12.09 0.49,3.13 2.09,5.65 4.9,7.62zm-247.83 -11.67c-1.17,9.88 5.51,15.58 19.93,17.18 10.07,1.16 29.33,1.65 57.78,1.65 27.86,0 47.37,-0.49 58.46,-1.65 15.97,-1.6 28.05,-7.3 36.08,-17.18 5.46,-6.68 12.09,-18.15 19.63,-34.29 7.6,-16.07 11.77,-27.42 12.62,-34.22 1.17,-9.75 -5.51,-15.46 -19.93,-17.18 -10.07,-1.04 -29.2,-1.6 -57.37,-1.6 -28.21,0 -47.84,0.56 -58.88,1.6 -15.97,1.72 -28.05,7.43 -36.08,17.18 -5.46,6.68 -11.97,17.96 -19.32,33.68 -7.79,16.5 -12.09,28.16 -12.94,34.83zm56.06 -8.83c-7.67,-0.73 -11.09,-3.79 -10.19,-9.01 0.24,-1.39 0.78,-3.22 1.63,-5.46l0.28 0 0 -0.75c0.85,-2.15 1.93,-4.64 3.3,-7.47 4.92,-10.49 8.96,-17.43 12.16,-20.97 3.13,-3.44 7.42,-5.7 12.76,-6.75 4.71,-0.87 17.6,-1.24 38.71,-1.24 18.52,0 30.05,0.19 34.71,0.73 4.54,0.56 7.37,1.91 8.42,4.17l0.36 0.99 0 4.04c-0.16,0.87 -0.38,1.82 -0.68,2.83 -0.98,3.42 -3.18,8.88 -6.68,16.31 -3.01,6.26 -5.53,10.8 -7.62,13.5 -2.14,2.76 -4.61,4.85 -7.67,6.26l-1.37 0.61 -0.52 0 0 0.19c-3.03,1.11 -6.77,1.84 -11.29,2.21 -5.46,0.43 -16.26,0.73 -32.2,0.73 -17.13,0 -28.47,-0.37 -34.12,-0.92zm-212.81 -77.05l-48.59 103.19 134.54 0 12.38 -26.31 -92.81 0 36.19 -76.88 -41.72 0zm2691.11 -81.45l120.91 0 -153.62 266.06 -120.78 0 153.49 -266.06zm206.84 0l94.42 0 -153.55 266.06 -94.42 0 153.55 -266.06zm174.66 0l90.42 0 -142.75 248.32 0 0.02 -10.19 17.72 -91.03 0 153.54 -266.06z"/>
   <path class="fil1" d="M806.62 3554.71l0.02 0 0 -0.03 318.97 -975.34 0.02 0 0 -0.03 89.87 -274.8 -10.12 -7.32 0 -0.03 -0.05 0 -1205.32 -872.21 561.25 1.1 0 0.02 6.96 0 932.24 1.82 146 -452.1 28.1 -3.69 3.18 0 0 -0.42c15.25,-1.96 30.52,-3.88 45.8,-5.72l9.41 0 0 -1.15c14.31,-1.72 28.62,-3.37 42.93,-4.99l12.28 0 0 -1.39c14.66,-1.63 29.34,-3.21 44.01,-4.73l11.2 0 0 -1.15c16.94,-1.74 33.91,-3.39 50.84,-4.99l4.36 0 0 -0.42 36.87 -3.32 -241.94 749.39 -872.04 -1.72 706.58 511.31 -226.06 691.31 1932.69 -1932.62 0.19 -0.19 999.38 0 231.57 266 -1120.84 0 -2640.85 2640.85 102.49 -313.42zm1452.92 -2631.22l162.63 504.01 187.89 0 -259.56 266 -121.1 0 -177.46 -549.66 -65.96 -204.29c18.97,-1.51 37.96,-2.96 56.97,-4.3l15.11 0 0 -1.06c27.04,-1.86 54.1,-3.55 81.15,-5.06l23.15 0 0 -1.25c32.4,-1.7 64.77,-3.18 97.17,-4.4zm4438.33 1557.02c-20.24,-17.5 -40.61,-34.67 -61.09,-51.79l-29.94 51.79 91.03 0zm-115.33 -97l-15.54 -12.76 -0.03 0 0 -0.03c-16.17,-13.27 -32.35,-26.48 -48.66,-39.53l-86.13 149.32 94.42 0 55.94 -97zm-123.24 -98.94c-27.79,-21.72 -55.65,-43.12 -83.68,-64.41l-150.24 260.35 120.78 0 113.14 -195.94zm-3666.75 280.47l381.02 1165.15 -459.1 -334.92 0 -0.05 -0.07 0 -740.26 -540.02 640.76 -640.74 3648.7 0 -153.55 266.06 -3384.97 0 -343.91 343.89 284.76 207.72 -83.92 -256.54 210.53 -210.53zm740.21 -230.35c-24.73,-0.56 -38.46,-1.17 -41.23,-1.84 -3.32,-0.85 -4.1,-3.06 -2.45,-6.63 0.87,-1.86 2.03,-3.37 3.48,-4.54l0.99 0 0 -0.7c1.29,-0.83 2.76,-1.41 4.41,-1.75 4.05,-0.8 14.54,-1.22 31.42,-1.22 14.03,0 23.11,0.12 27.4,0.36 4.17,0.24 6.94,0.66 8.35,1.53 1.12,0.68 1.65,1.53 1.6,2.58 0,1.04 -0.68,3 -1.96,5.89l38.59 0c1.11,-2.4 1.96,-4 2.28,-4.85 4.41,-9.32 5.32,-16.02 2.75,-20 -2.63,-3.93 -9.63,-6.63 -20.92,-7.91 -7.42,-0.8 -20.67,-1.29 -39.87,-1.29 -27.11,0 -45.33,0.56 -54.65,1.58 -9.39,0.99 -17.06,3.39 -23.01,7.13 -7.91,4.78 -14.61,13.01 -20.05,24.66 -4.97,10.36 -5.96,17.79 -3.13,22.26 1.58,2.64 4.71,4.68 9.25,5.77 4.54,1.23 11.54,1.89 21.04,2.15 4.78,0.12 15.21,0.42 31.16,1.1 15.58,0.61 25.84,0.85 30.75,0.85 6.31,0.12 10.24,0.68 11.84,1.72 1.53,1.04 1.65,3.13 0.17,6.21 -0.52,1.11 -1.08,2.1 -1.7,2.99l-0.5 0 0 0.7c-1.61,2.07 -3.6,3.44 -5.88,4.1 -2.28,0.61 -5.09,1.04 -8.53,1.17l-12.66 0.17 -0.54 0 -0.54 0 -0.56 0 -1.96 0 0 0.02 -14.17 0.1 -10.36 -0.1 0 -0.02 -0.38 0 -0.59 0 -0.57 0c-8.83,-0.1 -14.33,-0.16 -16.42,-0.3 -2.96,-0.26 -5.17,-0.8 -6.63,-1.72 -1.91,-1.53 -1.67,-4.85 0.85,-9.95l-38.52 0 -2.33 4.85c-3.57,7.42 -5.17,12.94 -5.05,16.5 0.12,3.69 2.16,6.63 5.95,8.84 3.81,2.09 10.14,3.49 19.21,4.29 8.96,0.8 23.25,1.22 42.88,1.22 23.49,0 39.56,-0.29 48.52,-0.85 8.28,-0.68 15.02,-1.77 20.31,-3.49 5.22,-1.72 9.87,-4.37 14.05,-7.79 5.46,-4.73 10.61,-11.97 15.2,-21.65 3.44,-7.42 5.16,-13.13 5.04,-17.13 -0.07,-3.98 -2.09,-7.04 -5.77,-9.32 -3.3,-1.9 -8.35,-3.25 -15.09,-3.86 -6.87,-0.73 -20.61,-1.36 -41.45,-1.84zm2048.68 -38.78l-48.59 103.19 145.27 0 11.6 -24.78 -106 0 7.84 -16.69 99.93 0 10.68 -22.62 -99.99 0 6.99 -14.85 105.26 0 11.48 -24.24 -144.47 0zm-226.67 0l-48.59 103.19 39.75 0 12.28 -26.19 56.13 0c8.16,0 13.55,0.12 15.95,0.49 2.45,0.36 4.1,1.17 5.02,2.33 0.85,1.29 0.92,3.2 0.31,5.58 -0.56,2.45 -2.21,6.58 -4.97,12.28l-2.58 5.51 39.13 0 4.56 -9.56c4.16,-8.95 6.68,-14.73 7.41,-17.55 0.75,-2.82 0.5,-5.15 -0.66,-7.11 -2.03,-3.32 -7.13,-5.22 -15.21,-5.7 7.42,-0.92 13.37,-2.45 17.96,-4.73 4.17,-2.14 7.79,-4.9 10.63,-8.47 2.75,-3.49 6,-9.13 9.56,-16.55 4.17,-8.95 6.31,-15.53 6.43,-19.63 0.12,-4.17 -1.77,-7.43 -5.63,-9.83 -3.13,-2.02 -6.94,-3.18 -11.16,-3.49 -4.3,-0.42 -17.67,-0.49 -40.19,-0.56l-96.13 0zm27.54 25.84l55.89 0c9.08,0 14.66,0.12 16.5,0.17 1.84,0.12 3.43,0.43 4.54,0.99 1.65,0.68 2.39,1.89 2.39,3.62 0,1.6 -0.73,4.17 -2.33,7.48 -1.58,3.44 -3.18,6.02 -4.59,7.74 -1.48,1.65 -3.37,2.89 -5.46,3.74 -1.65,0.68 -3.44,1.1 -5.34,1.22 -1.9,0.14 -7.86,0.26 -17.55,0.38l-56.01 0 11.96 -25.34zm-235.81 -25.84l-48.52 103.19 145.15 0 11.65 -24.78 -106.07 0 7.86 -16.69 100.05 0 10.61 -22.62 -99.99 0 6.92 -14.85 105.39 0 11.36 -24.24 -144.42 0zm-242.13 0l-48.59 103.19 41.72 0 17.55 -37.3 89.82 0 -17.5 37.3 41.72 0 48.59 -103.19 -41.77 0 -17.37 37 -89.87 0 17.43 -37 -41.72 0zm-267.78 26.08l32.34 77.1 69.19 0 48.52 -103.19 -40.41 0 -35.29 77 -4.1 0 -32.08 -77 -69.75 0 -48.53 103.19 40.43 0 35.46 -77.1 4.22 0zm-271.01 59.63l86.3 0 2.95 17.48 45.14 0 -19.68 -103.19 -61.78 0 -117.78 103.19 45.45 0 19.39 -17.48zm76.26 -61.78l6.8 39.14 -58.34 0 43.63 -39.14 7.92 0zm-349.49 73.63c4.05,2.82 10.49,4.71 19.39,5.7 8.83,0.97 24.42,1.46 46.79,1.46 17.74,0 30.99,-0.17 39.87,-0.54 8.71,-0.43 16.76,-1.17 23.93,-2.16 16.75,-2.45 28.66,-9.81 35.7,-21.65 4.42,-7.35 10.07,-18.34 17.01,-32.88 0.05,-0.19 0.42,-1.17 1.1,-2.82l-90.79 0 -9.75 20.61 52.32 0c-0.73,1.41 -1.17,2.4 -1.41,2.88 -1.41,2.94 -2.76,5.15 -4.35,6.63 -1.48,1.53 -3.32,2.58 -5.58,3.18 -2.64,0.8 -5.97,1.24 -10,1.41 -3.88,0.19 -14.97,0.31 -33.07,0.44 -18.35,-0.17 -29.15,-0.44 -32.52,-0.73 -3.37,-0.19 -5.75,-1.11 -7.23,-2.45 -1.6,-1.41 -1.84,-3.81 -1.04,-7.25 0.87,-3.42 3.32,-9.49 7.42,-18.15 1.22,-2.61 2.38,-4.96 3.46,-7.06l0.22 0 0 -0.45c2.02,-3.88 3.76,-6.83 5.22,-8.87 2.26,-3.18 4.78,-5.46 7.6,-6.87 2.82,-1.41 7.23,-2.33 13.44,-2.76 6.07,-0.48 16,-0.78 29.75,-0.78 12.69,0 22.26,0.12 28.88,0.49 2.8,0.12 5.17,0.31 7.11,0.59l0 0.26 1.65 0c1.93,0.36 3.29,0.85 4.05,1.41 0.87,0.68 1.24,1.53 1.11,2.52 -0.07,1.04 -0.68,3.01 -2.02,5.89l39.68 0c3.37,-7.18 5.46,-12.71 6.31,-16.81 1.72,-8.22 -1.7,-13.56 -10.61,-15.95 -5.46,-1.53 -12.82,-2.7 -22.09,-3.25 -9.27,-0.68 -22.08,-0.99 -38.51,-0.99 -27.67,0 -48.66,0.92 -62.88,2.76 -13.01,1.72 -23.25,6.51 -30.8,14.54 -3.62,3.74 -6.94,8.04 -9.82,12.82 -2.88,4.8 -6.56,11.91 -10.92,21.3 -6.56,13.86 -10.49,23.13 -12.02,27.84 -1.53,5.05 -2.16,9.08 -1.53,12.09 0.49,3.13 2.09,5.65 4.9,7.62zm-247.83 -11.67c-1.17,9.88 5.51,15.58 19.93,17.18 10.07,1.16 29.33,1.65 57.78,1.65 27.86,0 47.37,-0.49 58.46,-1.65 15.97,-1.6 28.05,-7.3 36.08,-17.18 5.46,-6.68 12.09,-18.15 19.63,-34.29 7.6,-16.07 11.77,-27.42 12.62,-34.22 1.17,-9.75 -5.51,-15.46 -19.93,-17.18 -10.07,-1.04 -29.2,-1.6 -57.37,-1.6 -28.21,0 -47.84,0.56 -58.88,1.6 -15.97,1.72 -28.05,7.43 -36.08,17.18 -5.46,6.68 -11.97,17.96 -19.32,33.68 -7.79,16.5 -12.09,28.16 -12.94,34.83zm56.06 -8.83c-7.67,-0.73 -11.09,-3.79 -10.19,-9.01 0.24,-1.39 0.78,-3.22 1.63,-5.46l0.28 0 0 -0.75c0.85,-2.15 1.93,-4.64 3.3,-7.47 4.92,-10.49 8.96,-17.43 12.16,-20.97 3.13,-3.44 7.42,-5.7 12.76,-6.75 4.71,-0.87 17.6,-1.24 38.71,-1.24 18.52,0 30.05,0.19 34.71,0.73 4.54,0.56 7.37,1.91 8.42,4.17l0.36 0.99 0 4.04c-0.16,0.87 -0.38,1.82 -0.68,2.83 -0.98,3.42 -3.18,8.88 -6.68,16.31 -3.01,6.26 -5.53,10.8 -7.62,13.5 -2.14,2.76 -4.61,4.85 -7.67,6.26l-1.37 0.61 -0.52 0 0 0.19c-3.03,1.11 -6.77,1.84 -11.29,2.21 -5.46,0.43 -16.26,0.73 -32.2,0.73 -17.13,0 -28.47,-0.37 -34.12,-0.92zm-212.81 -77.05l-48.59 103.19 134.54 0 12.38 -26.31 -92.81 0 36.19 -76.88 -41.72 0z"/>
   <path class="fil2" d="M714.09 3849.18l0.52 0 0 -1.01 5.96 -11.27 0.17 0 0 -0.33 16.19 -30.34 2.21 0 0 -4.1 4.4 -8.16 1.74 0 0 -3.2 4.92 -9.08 1.22 0 0 -2.26 5.46 -10 0.66 0 0 -1.2 6.05 -11.08 0.09 0 0 -0.14 3.3 -6 2.83 0 0 -5.13 3.95 -7.13 2.19 0 0 -3.98 4.63 -8.29 1.51 0 0 -2.7 5.34 -9.56 0.78 0 0 -1.41 2.66 -4.73 3.48 0 0 -6.16 3.45 -6.12 2.7 0 0 -4.78 4.26 -7.48 1.88 0 0 -3.28 5.11 -8.99 1.01 0 0 -1.75 2.52 -4.38 3.62 0 0 -6.3 3.42 -5.96 2.71 0 0 -4.71 4.38 -7.56 1.76 0 0 -3.03 5.34 -9.23 0.8 0 0 -1.37 10 -17.04 2.26 0 0 -3.86 4.96 -8.4 1.18 0 0 -1.98 6.09 -10.3 0.05 0 0 -0.09 10.94 -18.31 1.32 0 0 -2.23 6.05 -10.05 0.09 0 0 -0.14c16.09,-26.71 32.38,-53.25 48.83,-79.61l0.24 0 0 -0.38 11.28 -18.01 0.99 0 0 -1.58 10.64 -16.82 1.62 0 0 -2.56 10.12 -15.86 2.16 0 0 -3.39 5.7 -8.87 0.43 0 0 -0.68 3.53 -5.46 2.59 0 0 -4.04 5.34 -8.24 0.8 0 0 -1.24 3.18 -4.88 2.95 0 0 -4.54 5.05 -7.74 1.1 0 0 -1.68 2.92 -4.45 3.22 0 0 -4.89 4.83 -7.37 1.29 0 0 -1.95 2.78 -4.19 3.36 0 0 -5.06 4.78 -7.21 1.36 0 0 -2.05 2.71 -4.07 3.43 0 0 -5.11 4.8 -7.16 1.32 0 0 -1.98 2.78 -4.16 3.36 0 0 -4.98 4.9 -7.28 1.24 0 0 -1.83 2.92 -4.31 3.22 0 0 -4.75 5.13 -7.53 1.01 0 0 -1.48 3.17 -4.64 2.95 0 0 -4.35 5.44 -7.93 0.69 0 0 -1.01 3.53 -5.13 2.61 0 0 -3.81 5.86 -8.45 0.28 0 0 -0.4c14.13,-20.42 28.41,-40.76 42.79,-60.95l0.14 0 0 -0.19 17.41 -24.35 0.99 0 0 -1.37 16.76 -23.16 1.65 0 0 -2.28 11.81 -16.14 0.45 0 0 -0.63 4.02 -5.49 2.12 0 0 -2.87 11.48 -15.55 0.8 0 0 -1.08 3.76 -5.04 2.36 0 0 -3.17 11.39 -15.25 0.89 0 0 -1.18 3.72 -4.96 2.42 0 0 -3.22 2.19 -2.9 3.95 0 0 -5.25 5.32 -7.02 0.8 0 0 -1.04 3.86 -5.1 2.28 0 0 -3.01 2.37 -3.11 3.77 0 0 -4.94 5.6 -7.34 0.54 0 0 -0.7 4.16 -5.44 1.97 0 0 -2.54 2.78 -3.6 3.36 0 0 -4.35 6.1 -7.91 0.03 0 0 -0.05 4.73 -6.09 1.41 0 0 -1.81 3.37 -4.33 2.76 0 0 -3.55 11.62 -14.85 0.64 0 0 -0.82 4.17 -5.32 1.96 0 0 -2.49 17.48 -22.05 0.92 0 0 -1.17 3.96 -4.97 2.18 0 0 -2.71 17.51 -21.82 0.89 0 0 -1.1c17.98,-22.28 36.13,-44.4 54.43,-66.38l0.78 0 0 -0.94 4.33 -5.2 1.81 0 0 -2.17 23.96 -28.5 0.58 0 0 -0.68 4.62 -5.46 1.51 0 0 -1.78 3.69 -4.36 2.45 0 0 -2.87 2.78 -3.25 3.36 0 0 -3.93 17.69 -20.61 0.71 0 0 -0.82 4.59 -5.32 1.55 0 0 -1.79 3.78 -4.35 2.35 0 0 -2.7 2.99 -3.44 3.15 0 0 -3.64 2.17 -2.5 3.97 0 0 -4.52 12.16 -13.87 0.12 0 0 -0.12 5.3 -6.01 0.82 0 0 -0.92 4.59 -5.2 1.55 0 0 -1.74 3.88 -4.4 2.26 0 0 -2.54 3.21 -3.6 2.92 0 0 -3.29 2.56 -2.85 3.56 0 0 -4 24 -26.68 0.56 0 0 -0.61 4.99 -5.51 1.13 0 0 -1.25 4.43 -4.89 1.7 0 0 -1.86 3.91 -4.28 2.23 0 0 -2.44c13.58,-14.85 27.22,-29.63 40.97,-44.38l284.71 -284.57c15.39,-14.36 30.87,-28.62 46.38,-42.81l2.14 0 0 -1.97 4.57 -4.17 1.56 0 0 -1.43 5.2 -4.71 0.94 0 0 -0.85 5.82 -5.29 0.31 0 0 -0.28 26.97 -24.26 3.7 0 0 -3.3 3.18 -2.83 2.94 0 0 -2.61 3.93 -3.51 2.21 0 0 -1.96 4.73 -4.17 1.41 0 0 -1.25 5.53 -4.89 0.61 0 0 -0.54 13.35 -11.74 5.05 0 0 -4.41 1.95 -1.7 4.19 0 0 -3.67 2.83 -2.47 3.3 0 0 -2.87 3.77 -3.27 2.35 0 0 -2.05 4.71 -4.09 1.43 0 0 -1.24 5.67 -4.88 0.47 0 0 -0.42 13.79 -11.86 4.61 0 0 -3.93 2.59 -2.21 3.55 0 0 -3.02 3.65 -3.11 2.49 0 0 -2.12 4.7 -4 1.44 0 0 -1.22 5.8 -4.92 0.31 0 0 -0.26 21.53 -18.14 3 0 0 -2.52 4.31 -3.62 1.83 0 0 -1.51 5.56 -4.62 0.57 0 0 -0.49c12.16,-10.12 24.36,-20.17 36.6,-30.19l0.21 0 0 -0.17c9.96,-8.16 19.95,-16.29 29.96,-24.36l0.72 0 0 -0.57 22.19 -17.82 2.35 0 0 -1.88 5.36 -4.26 0.76 0 0 -0.61 22.47 -17.79 2.09 0 0 -1.65 5.72 -4.48 0.4 0 0 -0.31 15.27 -11.97 3.14 0 0 -2.45 4.75 -3.69 1.37 0 0 -1.06 14.45 -11.2 3.97 0 0 -3.04 4.02 -3.1 2.12 0 0 -1.63 5.86 -4.5 0.26 0 0 -0.19 7.76 -5.93 4.52 0 0 -3.44 3.53 -2.7 2.61 0 0 -2 5.46 -4.14 0.66 0 0 -0.49 7.47 -5.65 4.8 0 0 -3.64 3.32 -2.5 2.82 0 0 -2.11 5.36 -4.02 0.78 0 0 -0.59 7.41 -5.55 4.85 0 0 -3.64 3.37 -2.5 2.76 0 0 -2.05 5.49 -4.09 0.64 0 0 -0.47 7.62 -5.65 4.64 0 0 -3.41 3.71 -2.73 2.43 0 0 -1.79 5.9 -4.34 0.24 0 0 -0.17 16.57 -12.11 1.83 0 0 -1.34 23.58 -17.06 0.96 0 0 -0.68c31.39,-22.59 62.95,-44.85 94.75,-66.79l3.41 0 0 -2.37 5.51 -3.77 0.61 0 0 -0.42 8.35 -5.72 3.93 0 0 -2.7 5.04 -3.44 1.1 0 0 -0.75 7.95 -5.39 4.31 0 0 -2.92 4.69 -3.2 1.44 0 0 -0.97 7.67 -5.17 4.61 0 0 -3.11 4.5 -3.02 1.61 0 0 -1.1 7.57 -5.04 4.71 0 0 -3.15 4.47 -2.97 1.67 0 0 -1.11 7.58 -5.03 4.68 0 0 -3.09 4.61 -3.04 1.53 0 0 -1.01 7.77 -5.13 4.5 0 0 -2.96 4.87 -3.18 1.25 0 0 -0.84 8.07 -5.29 4.21 0 0 -2.73 5.25 -3.41 0.89 0 0 -0.57 8.57 -5.56 3.69 0 0 -2.39 5.86 -3.76 0.28 0 0 -0.19 9.24 -5.93 3.04 0 0 -1.95 16.22 -10.33 2.18 0 0 -1.39 17.23 -10.89 1.17 0 0 -0.73 18.36 -11.53 0.05 0 0 -0.03 9.79 -6.1 2.47 0 0 -1.53 17.34 -10.73 1.08 0 0 -0.66c19.77,-12.17 39.6,-24.23 59.49,-36.15l1.84 0 0 -1.12 29.05 -17.28 1.62 0 0 -0.96 8.78 -5.18 3.49 0 0 -2.07 6.97 -4.07 5.29 0 0 -3.09 5.18 -3.04 0.96 0 0 -0.56 9.62 -5.58 2.66 0 0 -1.55 7.89 -4.57 4.37 0 0 -2.52 6.29 -3.62 5.98 0 0 -3.42 4.71 -2.71 1.43 0 0 -0.82 9.36 -5.32 2.9 0 0 -1.65 7.9 -4.47 4.38 0 0 -2.49 6.49 -3.65 5.77 0 0 -3.25 5.11 -2.88 1.03 0 0 -0.57 9.96 -5.56 2.32 0 0 -1.29 8.71 -4.85 3.55 0 0 -1.96 7.51 -4.16 4.77 0 0 -2.63 17.6 -9.65 0.8 0 0 -0.43 10.45 -5.7 1.82 0 0 -0.99 9.48 -5.13 2.78 0 0 -1.51 8.55 -4.63 3.72 0 0 -2c14.1,-7.58 28.23,-15.08 42.38,-22.54l0.56 0 0 -0.29 18.27 -9.58 -2482.57 2482.64 9.96 -18.96zm6855.25 -2887.9l-3335.1 0 -35.21 10.58 0 0.22 -0.75 0 -17.67 5.41 0 0.73 -2.4 0 -16 4.94 0 1.2 -3.84 0 -14.56 4.56 0 1.56 -4.97 0 -13.44 4.26 0 1.88 -5.93 0 -12.47 4 0 2.14 -6.66 0 -11.74 3.81 0 2.33 -7.16 0 -11.25 3.69 0 2.44 -7.42 0 -10.97 3.64 0 2.5 -7.49 0 -10.9 3.65 0 2.49 -7.37 0 -11.04 3.74 0 2.4 -7.04 0 -11.35 3.9 0 2.24 -6.54 0 -11.86 4.1 0 2.02 -5.84 0 -12.57 4.4 0 1.74 -4.96 0 -13.44 4.75 0 1.39 -3.91 0 -14.49 5.17 0 0.97 -2.7 0 -15.72 5.65 0 0.47 -1.29 0c-22.12,8.02 -44.17,16.15 -66.18,24.43l0 0.12 -0.29 0 -30.38 11.51 0 0.75 -1.95 0 -10.33 3.97 0 2.17 -5.65 0 -12.75 4.94 0 1.2 -3.09 0 -9.16 3.58 0 2.54 -6.49 0 -11.93 4.7 0 1.44 -3.63 0 -8.63 3.43 0 2.71 -6.8 0 -11.61 4.66 0 1.48 -3.69 0 -8.57 3.46 0 2.68 -6.63 0 -11.79 4.8 0 1.32 -3.23 0 -9.02 3.7 0 2.44 -5.91 0 -12.48 5.18 0 0.96 -2.32 0 -9.96 4.16 0 1.98 -4.76 0 -7.51 3.15 0 2.97 -7.04 0 -11.35 4.8 0 1.34 -3.13 0 -9.13 3.9 0 2.24 -5.25 0 -13.16 5.65 0 0.48 -1.12 0 -11.14 4.82 0 1.32 -3.03 0 -27.65 12.09 0 0.17 -0.38 0 -22.14 9.82 3903.54 0 151.82 -266zm-4987.32 1814.29l-113 112.99 -87.85 -64.17 343.91 -343.89 3384.97 0 153.55 -266.06 -3648.7 0 -640.76 640.74 740.26 540.02 0.07 0 0 0.05 459.1 334.92 -381.02 -1165.15 -149.79 149.86 -60.74 60.67zm3796.85 -561.12l120.91 0 -153.62 266.06 -120.78 0 153.49 -266.06zm206.84 0l94.42 0 -153.55 266.06 -94.42 0 153.55 -266.06zm174.66 0l90.42 0 -142.75 248.32 0 0.02 -10.19 17.72 -91.03 0 153.54 -266.06z"/>
   <path class="fil3" d="M3815.8 2050.55c-14.25,-23.97 -30.62,-50.86 -49.08,-80.66 -18.46,-29.8 -38.39,-60.74 -59.77,-92.81 -21.38,-32.07 -43.57,-64.63 -66.57,-97.67 -23,-33.04 -45.84,-64.95 -68.52,-95.73 -22.67,-30.77 -44.7,-59.77 -66.08,-86.98 -21.38,-27.21 -41.14,-51.19 -59.28,-71.92l0 525.77 -92.33 0 0 -673.48 74.83 0c30.45,32.39 63.01,70.13 97.67,113.22 34.66,43.08 69,87.47 103.01,133.14 34.02,45.68 66.09,90.54 96.21,134.6 30.13,44.06 55.55,83.26 76.29,117.59l0 -498.55 92.33 0 0 673.48 -78.72 0zm686.12 -252.68c0,40.17 -5.83,76.45 -17.5,108.85 -11.66,32.4 -28.02,60.25 -49.07,83.58 -21.06,23.32 -46.16,41.3 -75.32,53.94 -29.16,12.63 -60.91,18.95 -95.24,18.95 -34.34,0 -66.09,-6.32 -95.24,-18.95 -29.16,-12.64 -54.26,-30.62 -75.32,-53.94 -21.05,-23.32 -37.42,-51.18 -49.07,-83.58 -11.66,-32.4 -17.5,-68.68 -17.5,-108.85 0,-39.52 5.83,-75.64 17.5,-108.36 11.66,-32.72 28.02,-60.74 49.07,-84.06 21.06,-23.33 46.16,-41.3 75.32,-53.94 29.16,-12.64 60.91,-18.95 95.24,-18.95 34.34,0 66.09,6.32 95.24,18.95 29.16,12.64 54.26,30.61 75.32,53.94 21.05,23.32 37.42,51.34 49.07,84.06 11.66,32.72 17.5,68.84 17.5,108.36zm-94.27 0c0,-57.02 -12.79,-102.2 -38.39,-135.57 -25.59,-33.36 -60.42,-50.05 -104.47,-50.05 -44.06,0 -78.88,16.69 -104.47,50.05 -25.59,33.37 -38.39,78.56 -38.39,135.57 0,57.01 12.79,102.2 38.39,135.57 25.59,33.36 60.42,50.05 104.47,50.05 44.06,0 78.88,-16.68 104.47,-50.05 25.59,-33.37 38.39,-78.56 38.39,-135.57zm602.54 -252.68c-25.27,94.59 -54.91,185.3 -88.92,272.11 -34.02,86.82 -66.9,164.57 -98.64,233.24l-81.63 0c-31.75,-68.68 -64.63,-146.42 -98.64,-233.24 -34.02,-86.82 -63.65,-177.52 -88.93,-272.11l97.19 0c7.78,31.75 17.01,65.6 27.7,101.56 10.69,35.96 22.03,71.59 34.01,106.9 11.99,35.31 24.14,69.49 36.45,102.53 12.31,33.04 23.97,62.52 34.98,88.44 11.02,-25.92 22.68,-55.39 34.99,-88.44 12.31,-33.04 24.46,-67.22 36.44,-102.53 11.99,-35.31 23.33,-70.95 34.02,-106.9 10.69,-35.96 19.92,-69.81 27.7,-101.56l93.29 0zm525.77 252.68c0,40.17 -5.83,76.45 -17.5,108.85 -11.66,32.4 -28.02,60.25 -49.07,83.58 -21.06,23.32 -46.16,41.3 -75.32,53.94 -29.16,12.63 -60.91,18.95 -95.24,18.95 -34.34,0 -66.09,-6.32 -95.24,-18.95 -29.16,-12.64 -54.26,-30.62 -75.32,-53.94 -21.05,-23.32 -37.42,-51.18 -49.07,-83.58 -11.66,-32.4 -17.5,-68.68 -17.5,-108.85 0,-39.52 5.83,-75.64 17.5,-108.36 11.66,-32.72 28.02,-60.74 49.07,-84.06 21.06,-23.33 46.16,-41.3 75.32,-53.94 29.16,-12.64 60.91,-18.95 95.24,-18.95 34.34,0 66.09,6.32 95.24,18.95 29.16,12.64 54.26,30.61 75.32,53.94 21.05,23.32 37.42,51.34 49.07,84.06 11.66,32.72 17.5,68.84 17.5,108.36zm-94.27 0c0,-57.02 -12.79,-102.2 -38.39,-135.57 -25.59,-33.36 -60.42,-50.05 -104.47,-50.05 -44.06,0 -78.88,16.69 -104.47,50.05 -25.59,33.37 -38.39,78.56 -38.39,135.57 0,57.01 12.79,102.2 38.39,135.57 25.59,33.36 60.42,50.05 104.47,50.05 44.06,0 78.88,-16.68 104.47,-50.05 25.59,-33.37 38.39,-78.56 38.39,-135.57zm339.17 187.56c36.93,0 64.3,-4.86 82.12,-14.58 17.82,-9.72 26.72,-25.27 26.72,-46.65 0,-22.03 -8.74,-39.52 -26.24,-52.48 -17.49,-12.96 -46.32,-27.53 -86.49,-43.73 -19.44,-7.78 -38.06,-15.71 -55.88,-23.81 -17.82,-8.1 -33.21,-17.65 -46.16,-28.67 -12.96,-11.02 -23.32,-24.3 -31.1,-39.85 -7.78,-15.55 -11.66,-34.66 -11.66,-57.34 0,-44.7 16.52,-80.18 49.57,-106.42 33.04,-26.24 78.07,-39.36 135.08,-39.36 14.25,0 28.51,0.81 42.76,2.43 14.25,1.62 27.54,3.56 39.85,5.83 12.31,2.27 23.16,4.7 32.56,7.29 9.39,2.59 16.69,4.86 21.87,6.8l-16.52 77.75c-9.72,-5.19 -24.95,-10.53 -45.68,-16.04 -20.73,-5.51 -45.67,-8.26 -74.83,-8.26 -25.27,0 -47.3,5.02 -66.09,15.06 -18.79,10.04 -28.18,25.76 -28.18,47.13 0,11.02 2.11,20.73 6.32,29.16 4.21,8.42 10.69,16.04 19.44,22.84 8.74,6.8 19.6,13.12 32.56,18.95 12.96,5.83 28.51,11.99 46.65,18.46 23.97,9.07 45.35,17.98 64.14,26.73 18.79,8.74 34.82,18.95 48.11,30.61 13.28,11.66 23.49,25.76 30.62,42.27 7.13,16.52 10.69,36.77 10.69,60.74 0,46.65 -17.33,81.96 -51.99,105.93 -34.66,23.97 -84.06,35.96 -148.2,35.96 -44.7,0 -79.69,-3.73 -104.96,-11.18 -25.27,-7.45 -42.44,-13.12 -51.51,-17l16.52 -77.75c10.37,3.89 26.89,9.72 49.56,17.5 22.68,7.77 52.8,11.66 90.38,11.66zm400.4 -440.24l191.46 0 0 75.8 -191.46 0 0 233.24c0,25.27 1.94,46.16 5.83,62.68 3.89,16.52 9.72,29.48 17.5,38.87 7.77,9.39 17.49,16.04 29.15,19.92 11.66,3.88 25.27,5.83 40.82,5.83 27.21,0 49.08,-3.07 65.6,-9.23 16.52,-6.15 28.02,-10.53 34.5,-13.12l17.49 74.83c-9.07,4.53 -24.95,10.2 -47.62,17 -22.68,6.8 -48.59,10.21 -77.75,10.21 -34.34,0 -62.68,-4.38 -85.03,-13.12 -22.35,-8.75 -40.33,-21.87 -53.94,-39.36 -13.6,-17.49 -23.16,-39.03 -28.67,-64.63 -5.51,-25.59 -8.26,-55.23 -8.26,-88.92l0 -450.93 90.38 -15.55 0 156.47zm477.17 440.24c21.38,0 40.33,-0.48 56.85,-1.46 16.52,-0.97 30.29,-2.75 41.3,-5.34l0 -150.64c-6.48,-3.24 -17.01,-5.99 -31.59,-8.26 -14.58,-2.27 -32.23,-3.4 -52.96,-3.4 -13.61,0 -28.02,0.97 -43.25,2.92 -15.23,1.94 -29.16,5.99 -41.79,12.15 -12.63,6.16 -23.16,14.58 -31.58,25.27 -8.42,10.69 -12.64,24.78 -12.64,42.27 0,32.4 10.37,54.91 31.1,67.54 20.73,12.64 48.92,18.95 84.55,18.95zm-7.77 -452.88c36.28,0 66.89,4.7 91.84,14.09 24.94,9.39 45.03,22.68 60.25,39.85 15.23,17.17 26.08,37.58 32.56,61.23 6.48,23.64 9.72,49.73 9.72,78.23l0 315.85c-7.78,1.3 -18.63,3.08 -32.56,5.35 -13.93,2.27 -29.64,4.37 -47.13,6.32 -17.5,1.94 -36.45,3.73 -56.85,5.34 -20.41,1.62 -40.66,2.43 -60.74,2.43 -28.51,0 -54.75,-2.92 -78.72,-8.75 -23.97,-5.83 -44.7,-15.06 -62.19,-27.7 -17.5,-12.63 -31.1,-29.31 -40.82,-50.05 -9.72,-20.73 -14.58,-45.68 -14.58,-74.83 0,-27.86 5.67,-51.83 17,-71.91 11.34,-20.09 26.73,-36.28 46.16,-48.59 19.44,-12.31 42.12,-21.38 68.03,-27.21 25.91,-5.83 53.13,-8.74 81.63,-8.74 9.07,0 18.46,0.48 28.18,1.46 9.72,0.97 18.95,2.27 27.7,3.89 8.74,1.62 16.36,3.08 22.84,4.37 6.48,1.3 11.02,2.27 13.61,2.92l0 -25.27c0,-14.9 -1.62,-29.64 -4.86,-44.22 -3.24,-14.58 -9.07,-27.53 -17.49,-38.87 -8.42,-11.34 -19.92,-20.41 -34.5,-27.21 -14.58,-6.8 -33.53,-10.21 -56.85,-10.21 -29.8,0 -55.88,2.11 -78.23,6.32 -22.35,4.21 -39.03,8.59 -50.05,13.12l-10.69 -74.83c11.66,-5.18 31.1,-10.2 58.31,-15.06 27.21,-4.86 56.69,-7.29 88.44,-7.29zm530.62 1.94c7.77,0 16.68,0.49 26.72,1.46 10.04,0.97 19.92,2.27 29.64,3.88 9.72,1.62 18.63,3.24 26.72,4.86 8.1,1.62 14.09,3.08 17.98,4.38l-15.55 78.72c-7.13,-2.59 -18.95,-5.67 -35.47,-9.23 -16.52,-3.57 -37.74,-5.35 -63.66,-5.35 -16.84,0 -33.53,1.78 -50.05,5.35 -16.52,3.56 -27.37,5.99 -32.56,7.29l0 424.69 -90.38 0 0 -483.98c21.38,-7.78 47.94,-15.06 79.69,-21.87 31.75,-6.8 67.38,-10.2 106.91,-10.2z"/>
   <path class="fil3" d="M3347.51 2265.05l26.77 0 0 191.24 -26.77 0 0 -191.24zm245.15 164.75c-1.84,-4.41 -4.28,-10.03 -7.31,-16.83 -3.04,-6.81 -6.3,-14.17 -9.8,-22.08 -3.5,-7.91 -7.22,-16.05 -11.18,-24.42 -3.95,-8.37 -7.68,-16.28 -11.18,-23.73 -3.5,-7.45 -6.76,-14.12 -9.8,-20 -3.04,-5.89 -5.47,-10.4 -7.31,-13.52 -2.02,21.71 -3.68,45.21 -4.96,70.51 -1.29,25.29 -2.39,50.82 -3.31,76.58l-26.22 0c0.74,-16.56 1.56,-33.25 2.48,-50.09 0.92,-16.83 1.98,-33.39 3.18,-49.68 1.19,-16.28 2.48,-32.15 3.86,-47.6 1.38,-15.45 2.9,-30.08 4.55,-43.88l23.46 0c4.97,8.09 10.3,17.66 16.01,28.7 5.7,11.04 11.4,22.58 17.11,34.63 5.7,12.05 11.22,24.1 16.56,36.15 5.33,12.05 10.21,23.04 14.63,32.98 4.41,-9.93 9.29,-20.93 14.63,-32.98 5.33,-12.05 10.85,-24.1 16.55,-36.15 5.7,-12.05 11.41,-23.59 17.11,-34.63 5.7,-11.04 11.04,-20.61 16,-28.7l23.46 0c6.26,61.63 10.95,125.38 14.08,191.24l-26.22 0c-0.92,-25.76 -2.03,-51.28 -3.31,-76.58 -1.29,-25.3 -2.95,-48.8 -4.97,-70.51 -1.84,3.13 -4.28,7.63 -7.31,13.52 -3.04,5.89 -6.3,12.55 -9.79,20 -3.5,7.45 -7.22,15.36 -11.18,23.73 -3.95,8.37 -7.68,16.51 -11.18,24.42 -3.49,7.91 -6.76,15.27 -9.8,22.08 -3.03,6.81 -5.47,12.42 -7.31,16.83l-21.53 0zm325.46 0c-1.84,-4.41 -4.28,-10.03 -7.31,-16.83 -3.04,-6.81 -6.3,-14.17 -9.8,-22.08 -3.5,-7.91 -7.22,-16.05 -11.18,-24.42 -3.95,-8.37 -7.68,-16.28 -11.18,-23.73 -3.5,-7.45 -6.76,-14.12 -9.8,-20 -3.04,-5.89 -5.47,-10.4 -7.31,-13.52 -2.02,21.71 -3.68,45.21 -4.96,70.51 -1.29,25.29 -2.39,50.82 -3.31,76.58l-26.22 0c0.74,-16.56 1.56,-33.25 2.48,-50.09 0.92,-16.83 1.98,-33.39 3.18,-49.68 1.19,-16.28 2.48,-32.15 3.86,-47.6 1.38,-15.45 2.9,-30.08 4.55,-43.88l23.46 0c4.97,8.09 10.3,17.66 16.01,28.7 5.7,11.04 11.4,22.58 17.11,34.63 5.7,12.05 11.22,24.1 16.56,36.15 5.33,12.05 10.21,23.04 14.63,32.98 4.41,-9.93 9.29,-20.93 14.63,-32.98 5.33,-12.05 10.85,-24.1 16.55,-36.15 5.7,-12.05 11.41,-23.59 17.11,-34.63 5.7,-11.04 11.04,-20.61 16,-28.7l23.46 0c6.26,61.63 10.95,125.38 14.08,191.24l-26.22 0c-0.92,-25.76 -2.03,-51.28 -3.31,-76.58 -1.29,-25.3 -2.95,-48.8 -4.97,-70.51 -1.84,3.13 -4.28,7.63 -7.31,13.52 -3.04,5.89 -6.3,12.55 -9.79,20 -3.5,7.45 -7.22,15.36 -11.18,23.73 -3.95,8.37 -7.68,16.51 -11.18,24.42 -3.49,7.91 -6.76,15.27 -9.8,22.08 -3.03,6.81 -5.47,12.42 -7.31,16.83l-21.53 0zm239.64 -164.75l26.77 0 0 191.24 -26.77 0 0 -191.24zm276.06 97.14l26.77 0 0 89.41c-2.21,0.74 -5.38,1.56 -9.52,2.48 -4.14,0.92 -8.92,1.84 -14.35,2.76 -5.43,0.92 -11.36,1.7 -17.8,2.34 -6.44,0.65 -12.97,0.97 -19.59,0.97 -13.43,0 -25.66,-2.21 -36.7,-6.63 -11.04,-4.41 -20.51,-10.85 -28.42,-19.32 -7.91,-8.46 -14.03,-18.86 -18.35,-31.18 -4.33,-12.33 -6.49,-26.49 -6.49,-42.5 0,-16.01 2.44,-30.22 7.31,-42.64 4.88,-12.42 11.45,-22.86 19.73,-31.32 8.28,-8.46 17.98,-14.9 29.11,-19.32 11.13,-4.41 23.04,-6.62 35.74,-6.62 8.65,0 16.33,0.55 23.04,1.65 6.71,1.1 12.47,2.39 17.25,3.86 4.78,1.47 8.69,2.94 11.73,4.41 3.04,1.47 5.1,2.58 6.21,3.31l-8.55 22.35c-5.34,-3.49 -12.42,-6.39 -21.25,-8.69 -8.83,-2.3 -17.84,-3.45 -27.04,-3.45 -9.75,0 -18.63,1.75 -26.63,5.24 -8,3.5 -14.81,8.55 -20.42,15.18 -5.61,6.63 -9.98,14.67 -13.11,24.15 -3.13,9.48 -4.69,20.1 -4.69,31.87 0,11.4 1.34,21.8 4,31.18 2.67,9.38 6.71,17.43 12.14,24.15 5.43,6.71 12.14,11.91 20.14,15.59 8,3.68 17.43,5.52 28.29,5.52 7.73,0 14.3,-0.41 19.73,-1.24 5.43,-0.83 9.34,-1.61 11.73,-2.35l0 -71.2zm247.36 14.08c2.94,3.68 6.67,8.51 11.18,14.49 4.51,5.98 9.15,12.6 13.94,19.87 4.78,7.27 9.52,14.85 14.21,22.77 4.69,7.91 8.69,15.55 12,22.91l-29.25 0c-3.68,-6.99 -7.68,-14.07 -12,-21.25 -4.33,-7.18 -8.69,-14.03 -13.11,-20.56 -4.41,-6.53 -8.79,-12.65 -13.11,-18.35 -4.33,-5.7 -8.23,-10.67 -11.73,-14.9 -2.39,0.19 -4.83,0.28 -7.31,0.28 -2.49,0 -5.01,0 -7.59,0l-24.01 0 0 74.78 -26.77 0 0 -188.48c7.54,-1.84 15.96,-3.08 25.25,-3.73 9.29,-0.64 17.8,-0.96 25.53,-0.96 26.86,0 47.33,5.06 61.4,15.18 14.07,10.12 21.11,25.21 21.11,45.26 0,12.7 -3.36,23.55 -10.07,32.57 -6.72,9.01 -16.6,15.73 -29.67,20.14zm-40.57 -89.69c-11.4,0 -20.14,0.28 -26.22,0.83l0 72.03 19.04 0c9.2,0 17.48,-0.46 24.84,-1.38 7.36,-0.92 13.57,-2.67 18.63,-5.24 5.06,-2.58 8.97,-6.21 11.73,-10.9 2.76,-4.69 4.14,-10.9 4.14,-18.63 0,-7.18 -1.38,-13.15 -4.14,-17.94 -2.76,-4.78 -6.49,-8.55 -11.18,-11.32 -4.69,-2.76 -10.21,-4.69 -16.56,-5.79 -6.35,-1.1 -13.11,-1.66 -20.28,-1.66zm341.19 169.72c-3.13,-8.28 -6.07,-16.42 -8.83,-24.42 -2.76,-8 -5.61,-16.14 -8.55,-24.42l-86.65 0 -17.38 48.85 -27.87 0c7.36,-20.24 14.26,-38.96 20.7,-56.16 6.44,-17.2 12.74,-33.53 18.9,-48.98 6.16,-15.45 12.28,-30.22 18.35,-44.29 6.07,-14.07 12.42,-28.01 19.04,-41.81l24.56 0c6.62,13.8 12.97,27.73 19.04,41.81 6.07,14.07 12.19,28.84 18.35,44.29 6.16,15.45 12.47,31.78 18.91,48.98 6.44,17.2 13.34,35.92 20.69,56.16l-29.25 0zm-25.11 -70.92c-5.89,-16 -11.73,-31.5 -17.52,-46.5 -5.79,-14.99 -11.82,-29.39 -18.07,-43.19 -6.44,13.8 -12.56,28.19 -18.35,43.19 -5.8,14.99 -11.55,30.49 -17.25,46.5l71.19 0zm275.51 -120.32l0 23.18 -60.16 0 0 168.06 -26.77 0 0 -168.06 -60.16 0 0 -23.18 147.09 0zm113.25 0l26.77 0 0 191.24 -26.77 0 0 -191.24zm151.6 95.48c0,-16.38 2.44,-30.82 7.31,-43.33 4.88,-12.51 11.5,-22.95 19.87,-31.32 8.37,-8.37 18.12,-14.67 29.25,-18.9 11.13,-4.23 22.95,-6.35 35.46,-6.35 12.33,0 23.96,2.11 34.91,6.35 10.94,4.23 20.56,10.53 28.84,18.9 8.28,8.37 14.85,18.81 19.73,31.32 4.88,12.51 7.31,26.95 7.31,43.33 0,16.37 -2.44,30.81 -7.31,43.32 -4.88,12.51 -11.45,22.95 -19.73,31.32 -8.28,8.37 -17.89,14.67 -28.84,18.91 -10.95,4.23 -22.58,6.35 -34.91,6.35 -12.51,0 -24.33,-2.11 -35.46,-6.35 -11.13,-4.23 -20.88,-10.53 -29.25,-18.91 -8.37,-8.37 -14.99,-18.81 -19.87,-31.32 -4.88,-12.51 -7.31,-26.95 -7.31,-43.32zm28.15 0c0,11.59 1.47,22.12 4.41,31.59 2.94,9.48 7.13,17.53 12.56,24.15 5.43,6.62 12.05,11.73 19.87,15.32 7.82,3.59 16.6,5.38 26.35,5.38 9.75,0 18.49,-1.8 26.22,-5.38 7.73,-3.59 14.3,-8.69 19.73,-15.32 5.43,-6.62 9.61,-14.67 12.55,-24.15 2.94,-9.47 4.41,-20 4.41,-31.59 0,-11.59 -1.47,-22.12 -4.41,-31.6 -2.94,-9.48 -7.13,-17.52 -12.55,-24.14 -5.43,-6.63 -12,-11.73 -19.73,-15.32 -7.73,-3.59 -16.47,-5.38 -26.22,-5.38 -9.75,0 -18.53,1.79 -26.35,5.38 -7.82,3.59 -14.44,8.69 -19.87,15.32 -5.43,6.62 -9.62,14.67 -12.56,24.14 -2.94,9.48 -4.41,20.01 -4.41,31.6zm410.46 95.76c-4.05,-6.81 -8.69,-14.44 -13.94,-22.91 -5.24,-8.46 -10.9,-17.25 -16.97,-26.35 -6.07,-9.11 -12.37,-18.35 -18.9,-27.73 -6.53,-9.38 -13.02,-18.44 -19.45,-27.18 -6.44,-8.74 -12.7,-16.97 -18.77,-24.7 -6.07,-7.73 -11.68,-14.53 -16.83,-20.42l0 149.29 -26.22 0 0 -191.24 21.25 0c8.65,9.2 17.89,19.92 27.73,32.15 9.84,12.23 19.59,24.84 29.25,37.81 9.66,12.97 18.77,25.71 27.32,38.22 8.55,12.51 15.78,23.64 21.66,33.39l0 -141.57 26.22 0 0 191.24 -22.35 0z"/>
  </g>
 </g>
</svg>
